<?xml version="1.0" encoding="UTF-8" standalone="no"?>
<!-- Created with Inkscape (http://www.inkscape.org/) -->

<svg
   xmlns:dc="http://purl.org/dc/elements/1.1/"
   xmlns:cc="http://creativecommons.org/ns#"
   xmlns:rdf="http://www.w3.org/1999/02/22-rdf-syntax-ns#"
   xmlns:svg="http://www.w3.org/2000/svg"
   xmlns="http://www.w3.org/2000/svg"
   xmlns:sodipodi="http://sodipodi.sourceforge.net/DTD/sodipodi-0.dtd"
   xmlns:inkscape="http://www.inkscape.org/namespaces/inkscape"
   width="1052.3622"
   height="744.09448"
   id="svg2"
   version="1.1"
   inkscape:version="0.48.4 r9939"
   sodipodi:docname="marta_logo.svg">
  <defs
     id="defs4" />
  <sodipodi:namedview
     id="base"
     pagecolor="#ffffff"
     bordercolor="#666666"
     borderopacity="1.0"
     inkscape:pageopacity="0.0"
     inkscape:pageshadow="2"
     inkscape:zoom="0.80231747"
     inkscape:cx="470.90701"
     inkscape:cy="471.75839"
     inkscape:document-units="px"
     inkscape:current-layer="layer1"
     showgrid="false"
     inkscape:window-width="1323"
     inkscape:window-height="744"
     inkscape:window-x="43"
     inkscape:window-y="24"
     inkscape:window-maximized="1" />
  <metadata
     id="metadata7">
    <rdf:RDF>
      <cc:Work
         rdf:about="">
        <dc:format>image/svg+xml</dc:format>
        <dc:type
           rdf:resource="http://purl.org/dc/dcmitype/StillImage" />
        <dc:title />
      </cc:Work>
    </rdf:RDF>
  </metadata>
  <g
     inkscape:label="Layer 1"
     inkscape:groupmode="layer"
     id="layer1"
     transform="translate(0,-308.2677)">
    <g
       id="g3054"
       transform="translate(-7.4783367,-350.23543)">
      <path
         id="rect3773-3-3"
         d="m 180.37638,985.29112 c -13.74536,0 -24.8125,11.0672 -24.8125,24.81248 l 0,130.4688 c 0,13.7453 11.06714,24.8125 24.8125,24.8125 l 770.96875,0 c 13.74536,0 24.8125,-11.0672 24.8125,-24.8125 l 0,-130.4688 c 0,-13.74528 -11.06714,-24.81248 -24.8125,-24.81248 l -770.96875,0 z m 21.75,12.7188 109.40625,0 c 12.53254,0 22.625,10.09238 22.625,22.62498 l 0,109.375 c 0,12.5325 -10.09246,22.625 -22.625,22.625 l -109.40625,0 c -12.53254,0 -22.625,-10.0925 -22.625,-22.625 l 0,-109.375 c 0,-12.5326 10.09246,-22.62498 22.625,-22.62498 z m 212.4375,25.93748 31.59375,0 38.0625,102.75 -26.625,0 -6.46875,-18.7188 -41.4375,0 -6.53125,18.7188 -26.65625,0 38.0625,-102.75 z m 132.25,0 40.46875,0 c 13.53688,10e-5 23.43202,2.2697 29.71875,6.8125 6.33245,4.543 9.49991,11.7113 9.5,21.5312 -9e-5,6.7915 -1.63366,12.3907 -4.9375,16.75 -3.25813,4.3594 -8.20471,7.5601 -14.8125,9.625 3.62507,0.8261 6.87362,2.7195 9.71875,5.6563 2.89086,2.891 5.78183,7.268 8.71875,13.1875 l 14.40625,29.1875 -28.21875,0 -12.53125,-25.5313 c -2.5239,-5.1394 -5.1032,-8.6498 -7.71875,-10.5312 -2.56978,-1.8814 -5.99908,-2.8125 -10.3125,-2.8125 l -7.5,0 0,38.875 -26.5,0 0,-102.75 z m 145.21875,0 94.71875,0 0,20.0312 -34.0625,0 0,82.7188 -26.5,0 0,-82.7188 -34.15625,0 0,-20.0312 z m 183.15625,0 31.59375,0 38.0625,102.75 -26.625,0 -6.46875,-18.7188 -41.4375,0 -6.53125,18.7188 -26.65625,0 38.0625,-102.75 z m -301.875,19.1875 0,26.375 11.125,0 c 5.55239,0 9.55127,-1.0288 11.9375,-3.0938 2.432,-2.0649 3.62493,-5.4609 3.625,-10.1875 -7e-5,-4.6805 -1.193,-8.0433 -3.625,-10.0625 -2.38623,-2.019 -6.38511,-3.0311 -11.9375,-3.0312 l -11.125,0 z m -142.90625,4.9062 -14.125,40.875 28.15625,0 -14.03125,-40.875 z m 460.625,0 -14.125,40.875 28.15625,0 -14.03125,-40.875 z"
         style="fill:#002f7c;fill-opacity:0.71689501;stroke:none"
         inkscape:connector-curvature="0" />
      <path
         id="rect3797-9-6"
         d="m 257.05216,847.10666 c -6.85245,0 -12.40625,5.5538 -12.40625,12.40625 0,5.30994 3.30986,9.85423 8,11.625 l 0,7.37498 -33.4375,0 c -6.93466,0 -12.5,5.56543 -12.5,12.50003 l 0,22.9375 c -0.40506,-1.9896 -2.16857,-3.5 -4.28125,-3.5 l -6.34375,0 c -2.4145,0 -4.375,1.9293 -4.375,4.3438 l 0,25.875 c 0,2.4145 1.9605,4.375 4.375,4.375 l 6.34375,0 c 2.11268,0 3.87619,-1.5417 4.28125,-3.5313 l 0,25.1563 c 0,6.9346 5.56534,12.5 12.5,12.5 l 75.625,0 c 6.93463,0 12.53125,-5.5654 12.53125,-12.5 l 0,-26 c 0,2.4145 1.898,4.375 4.3125,4.375 l 6.375,0 c 2.4145,0 4.34375,-1.9605 4.34375,-4.375 l 0,-25.875 c 0,-2.4145 -1.92925,-4.3438 -4.34375,-4.3438 l -6.375,0 c -2.4145,0 -4.3125,1.9293 -4.3125,4.3438 l 0,-23.7813 c 0,-6.9346 -5.59662,-12.50003 -12.53125,-12.50003 l -33.40625,0 0,-7.37498 c 4.69014,-1.77077 8.03125,-6.31506 8.03125,-11.625 0,-6.85245 -5.5538,-12.40625 -12.40625,-12.40625 z m -23.3125,47.78126 c 9.38217,0 17,7.5866 17,16.9688 0,9.3821 -7.61783,17 -17,17 -9.38217,0 -16.96875,-7.6179 -16.96875,-17 0,-9.3822 7.58658,-16.9688 16.96875,-16.9688 z m 45.9375,0 c 9.38217,0 17,7.5866 17,16.9688 0,9.3821 -7.61783,17 -17,17 -9.38217,0 -17,-7.6179 -17,-17 0,-9.3822 7.61783,-16.9688 17,-16.9688 z m -53.8125,58.7813 62.3125,0 c 0.80902,0 1.46875,0.6597 1.46875,1.4687 l 0,2.5 c 0,0.809 -0.65973,1.4688 -1.46875,1.4688 l -62.3125,0 c -0.80902,0 -1.46875,-0.6598 -1.46875,-1.4688 l 0,-2.5 c 0,-0.809 0.65973,-1.4687 1.46875,-1.4687 z"
         style="fill:#002f7c;fill-opacity:0.71764706;stroke:none"
         inkscape:connector-curvature="0" />
      <path
         sodipodi:nodetypes="csc"
         inkscape:connector-curvature="0"
         id="path3880-1-7"
         d="m 96.784462,910.22312 c 0,0 -6.84789,23.2712 20.841018,57.2047 15.08867,18.4916 37.19761,28.6991 37.19761,28.6991"
         style="fill:none;stroke:#002f7c;stroke-width:20.01176262;stroke-linecap:butt;stroke-linejoin:miter;stroke-miterlimit:4;stroke-opacity:0.71764706;stroke-dasharray:none" />
      <path
         inkscape:connector-curvature="0"
         id="path3893-2-5"
         d="m 82.720582,853.88741 -14.40389,24.95988 14.40389,24.96003 28.819718,0 14.40985,-24.96003 -14.40985,-24.95988 -2.25007,0 0,22.34488 c 0,3.5632 -2.86974,6.43293 -6.43295,6.43293 l -11.447708,0 c -3.56321,0 -6.43296,-2.86973 -6.43296,-6.43293 l 0,-22.34488 -2.25603,0 z"
         style="fill:#002f7c;fill-opacity:0.71764706;stroke:none" />
      <g
         id="flowRoot2985-7-7-3"
         style="font-size:40px;font-style:normal;font-variant:normal;font-weight:normal;font-stretch:normal;line-height:125%;letter-spacing:0px;word-spacing:0px;fill:#000000;fill-opacity:1;stroke:none;font-family:cmr10;-inkscape-font-specification:cmr10"
         transform="matrix(3.5241955,0,0,3.5241955,-507.09943,472.33976)">
        <path
           d="m 200.59375,156.53125 0,29.15625 7.15625,0 0,-21.34375 6.71875,15.71875 4.75,0 6.71875,-15.71875 0,21.34375 7.125,0 0,-29.15625 -9.5625,0 -6.6875,15.59375 -6.625,-15.59375 -9.59375,0 z"
           id="path3052"
           style="font-size:40px;fill:#002f7c;fill-opacity:0.71764915;font-family:Amiri Quran;-inkscape-font-specification:Amiri Quran Bold"
           inkscape:original="M 200.59375 156.53125 L 200.59375 185.6875 L 207.75 185.6875 L 207.75 164.34375 L 214.46875 180.0625 L 219.21875 180.0625 L 225.9375 164.34375 L 225.9375 185.6875 L 233.0625 185.6875 L 233.0625 156.53125 L 223.5 156.53125 L 216.8125 172.125 L 210.1875 156.53125 L 200.59375 156.53125 z "
           inkscape:radius="0"
           sodipodi:type="inkscape:offset" />
      </g>
    </g>
  </g>
</svg>
