<?xml version="1.0" encoding="UTF-8" standalone="no"?>
<!-- Created with Inkscape (http://www.inkscape.org/) -->

<svg
   xmlns:dc="http://purl.org/dc/elements/1.1/"
   xmlns:cc="http://creativecommons.org/ns#"
   xmlns:rdf="http://www.w3.org/1999/02/22-rdf-syntax-ns#"
   xmlns:svg="http://www.w3.org/2000/svg"
   xmlns="http://www.w3.org/2000/svg"
   xmlns:sodipodi="http://sodipodi.sourceforge.net/DTD/sodipodi-0.dtd"
   xmlns:inkscape="http://www.inkscape.org/namespaces/inkscape"
   width="1052.3622"
   height="744.09448"
   id="svg2"
   version="1.1"
   inkscape:version="0.48.4 r9939"
   sodipodi:docname="marta_logo.svg">
  <defs
     id="defs4" />
  <sodipodi:namedview
     id="base"
     pagecolor="#ffffff"
     bordercolor="#666666"
     borderopacity="1.0"
     inkscape:pageopacity="0.0"
     inkscape:pageshadow="2"
     inkscape:zoom="0.80231747"
     inkscape:cx="470.90701"
     inkscape:cy="372.04724"
     inkscape:document-units="px"
     inkscape:current-layer="layer1"
     showgrid="false"
     inkscape:window-width="1323"
     inkscape:window-height="744"
     inkscape:window-x="43"
     inkscape:window-y="24"
     inkscape:window-maximized="1" />
  <metadata
     id="metadata7">
    <rdf:RDF>
      <cc:Work
         rdf:about="">
        <dc:format>image/svg+xml</dc:format>
        <dc:type
           rdf:resource="http://purl.org/dc/dcmitype/StillImage" />
        <dc:title />
      </cc:Work>
    </rdf:RDF>
  </metadata>
  <g
     inkscape:label="Layer 1"
     inkscape:groupmode="layer"
     id="layer1"
     transform="translate(0,-308.2677)">
    <g
       id="g3102"
       transform="translate(28.666957,-394.86915)">
      <path
         id="rect3773-3"
         transform="translate(0,308.2677)"
         d="m 157.9375,698.21875 c -13.74536,0 -24.8125,11.06714 -24.8125,24.8125 l 0,130.46875 c 0,13.74536 11.06714,24.8125 24.8125,24.8125 l 770.96875,0 c 13.74536,0 24.8125,-11.06714 24.8125,-24.8125 l 0,-130.46875 c 0,-13.74536 -11.06714,-24.8125 -24.8125,-24.8125 l -770.96875,0 z m 21.75,12.71875 109.40625,0 c 12.53254,0 22.625,10.09246 22.625,22.625 l 0,109.375 c 0,12.53254 -10.09246,22.625 -22.625,22.625 l -109.40625,0 c -12.53254,0 -22.625,-10.09246 -22.625,-22.625 l 0,-109.375 c 0,-12.53254 10.09246,-22.625 22.625,-22.625 z m 212.4375,25.9375 31.59375,0 38.0625,102.75 -26.625,0 -6.46875,-18.71875 -41.4375,0 -6.53125,18.71875 -26.65625,0 38.0625,-102.75 z m 132.25,0 40.46875,0 c 13.53688,10e-5 23.43202,2.26969 29.71875,6.8125 6.33245,4.543 9.49991,11.71131 9.5,21.53125 -9e-5,6.79149 -1.63366,12.39071 -4.9375,16.75 -3.25813,4.35941 -8.20471,7.56009 -14.8125,9.625 3.62507,0.82603 6.87362,2.71947 9.71875,5.65625 2.89086,2.89098 5.78183,7.26799 8.71875,13.1875 l 14.40625,29.1875 -28.21875,0 -12.53125,-25.53125 c -2.5239,-5.13942 -5.1032,-8.64981 -7.71875,-10.53125 -2.56978,-1.88137 -5.99908,-2.81246 -10.3125,-2.8125 l -7.5,0 0,38.875 -26.5,0 0,-102.75 z m 145.21875,0 94.71875,0 0,20.03125 -34.0625,0 0,82.71875 -26.5,0 0,-82.71875 -34.15625,0 0,-20.03125 z m 183.15625,0 31.59375,0 38.0625,102.75 -26.625,0 -6.46875,-18.71875 -41.4375,0 -6.53125,18.71875 -26.65625,0 38.0625,-102.75 z m -301.875,19.1875 0,26.375 11.125,0 c 5.55239,6e-5 9.55127,-1.02873 11.9375,-3.09375 2.432,-2.0649 3.62493,-5.46097 3.625,-10.1875 -7e-5,-4.6805 -1.193,-8.04335 -3.625,-10.0625 -2.38623,-2.01899 -6.38511,-3.03117 -11.9375,-3.03125 l -11.125,0 z m -142.90625,4.90625 -14.125,40.875 28.15625,0 -14.03125,-40.875 z m 460.625,0 -14.125,40.875 28.15625,0 -14.03125,-40.875 z"
         style="fill:#002f7c;fill-opacity:0.71689501;stroke:none"
         inkscape:connector-curvature="0" />
      <path
         id="rect3797-9"
         d="m 234.61328,868.30196 c -6.85245,0 -12.40625,5.5538 -12.40625,12.40625 0,5.30994 3.30986,9.85423 8,11.625 l 0,7.37498 -33.4375,0 c -6.93466,0 -12.5,5.5654 -12.5,12.5 l 0,22.9375 c -0.40506,-1.9896 -2.16857,-3.5 -4.28125,-3.5 l -6.34375,0 c -2.4145,0 -4.375,1.9293 -4.375,4.3438 l 0,25.875 c 0,2.4145 1.9605,4.375 4.375,4.375 l 6.34375,0 c 2.11268,0 3.87619,-1.5417 4.28125,-3.5313 l 0,25.1563 c 0,6.9346 5.56534,12.50001 12.5,12.50001 l 75.625,0 c 6.93463,0 12.53125,-5.56541 12.53125,-12.50001 l 0,-26 c 0,2.4145 1.898,4.375 4.3125,4.375 l 6.375,0 c 2.4145,0 4.34375,-1.9605 4.34375,-4.375 l 0,-25.875 c 0,-2.4145 -1.92925,-4.3438 -4.34375,-4.3438 l -6.375,0 c -2.4145,0 -4.3125,1.9293 -4.3125,4.3438 l 0,-23.7813 c 0,-6.9346 -5.59662,-12.5 -12.53125,-12.5 l -33.40625,0 0,-7.37498 c 4.69014,-1.77077 8.03125,-6.31506 8.03125,-11.625 0,-6.85245 -5.5538,-12.40625 -12.40625,-12.40625 z m -23.3125,47.78123 c 9.38217,0 17,7.5866 17,16.9688 0,9.3821 -7.61783,17 -17,17 -9.38217,0 -16.96875,-7.6179 -16.96875,-17 0,-9.3822 7.58658,-16.9688 16.96875,-16.9688 z m 45.9375,0 c 9.38217,0 17,7.5866 17,16.9688 0,9.3821 -7.61783,17 -17,17 -9.38217,0 -17,-7.6179 -17,-17 0,-9.3822 7.61783,-16.9688 17,-16.9688 z m -53.8125,58.7813 62.3125,0 c 0.80902,0 1.46875,0.6597 1.46875,1.4687 l 0,2.5 c 0,0.809 -0.65973,1.4688 -1.46875,1.4688 l -62.3125,0 c -0.80902,0 -1.46875,-0.6598 -1.46875,-1.4688 l 0,-2.5 c 0,-0.809 0.65973,-1.4687 1.46875,-1.4687 z"
         style="fill:#002f7c;fill-opacity:0.71764706;stroke:none"
         inkscape:connector-curvature="0" />
      <path
         sodipodi:nodetypes="csc"
         inkscape:connector-curvature="0"
         id="path3880-1"
         d="m 74.345584,931.41839 c 0,0 -6.847884,23.2712 20.841019,57.2047 15.088667,18.49161 37.197607,28.69911 37.197607,28.69911"
         style="fill:none;stroke:#002f7c;stroke-width:20.01176262;stroke-linecap:butt;stroke-linejoin:miter;stroke-miterlimit:4;stroke-opacity:0.71764706;stroke-dasharray:none" />
      <path
         inkscape:connector-curvature="0"
         id="path3893-2"
         d="m 60.281701,875.08271 -14.403884,24.95988 14.403884,24.96 28.819722,0 14.409847,-24.96 -14.409847,-24.95988 -2.25007,0 0,22.34488 c 0,3.5632 -2.869744,6.4329 -6.432953,6.4329 l -11.447707,0 c -3.56321,0 -6.432961,-2.8697 -6.432961,-6.4329 l 0,-22.34488 -2.256031,0 z"
         style="fill:#002f7c;fill-opacity:0.71764706;stroke:none" />
      <flowRoot
         transform="matrix(3.5241955,0,0,3.5241955,-529.53831,493.53506)"
         style="font-size:40px;font-style:normal;font-variant:normal;font-weight:normal;font-stretch:normal;line-height:125%;letter-spacing:0px;word-spacing:0px;fill:#000000;fill-opacity:1;stroke:none;font-family:cmr10;-inkscape-font-specification:cmr10"
         id="flowRoot2985-7-7"
         xml:space="preserve"><flowRegion
           id="flowRegion2987-5-0"><rect
             y="145.82756"
             x="196.92953"
             height="210.63982"
             width="686.76056"
             id="rect2989-3-9" /></flowRegion><flowPara
           style="font-style:normal;font-variant:normal;font-weight:bold;font-stretch:normal;fill:#ffffff;stroke:none;font-family:Arial;-inkscape-font-specification:Arial Bold"
           id="flowPara2991-5-3"><flowSpan
             id="flowSpan2993-6-6"
             style="font-size:40px;font-style:normal;font-variant:normal;font-weight:bold;font-stretch:normal;fill:#002f7c;fill-opacity:0.71764706;stroke:none;font-family:Amiri Quran;-inkscape-font-specification:Amiri Quran Bold">M</flowSpan><flowSpan
             id="flowSpan3003-2-0"
             style="font-style:normal;font-variant:normal;font-weight:bold;font-stretch:normal;fill:#ffffff;stroke:none;font-family:Amiri Quran;-inkscape-font-specification:Amiri Quran Bold" /></flowPara></flowRoot>    </g>
  </g>
</svg>
